<?xml version="1.0" encoding="utf-8"?>
<!-- Generator: Adobe Illustrator 23.0.3, SVG Export Plug-In . SVG Version: 6.00 Build 0)  -->
<svg version="1.1" id="Capa_1" xmlns="http://www.w3.org/2000/svg" xmlns:xlink="http://www.w3.org/1999/xlink" x="0px" y="0px"
	 viewBox="0 0 324.2 62.9" style="enable-background:new 0 0 324.2 62.9;" xml:space="preserve">
<g>
	<path d="M36.3,44.9c0.5-1.4,1-2.5,1.4-3.6c3.7-9.6,7.4-19.2,11.1-28.7c1-2.6,0.8-3.4-1.3-5.3c-0.6-0.5-1.2-0.9-1.6-1.6
		c-0.3-0.6-0.5-1.5-0.3-2.1c0.2-0.5,1.1-1,1.6-1c4.4-0.1,8.8-0.1,13.2,0c1.6,0,2.3,1.4,1.5,3c-0.3,0.6-0.8,1.1-1.2,1.5
		c-1.7,1.6-2.9,3.5-3.8,5.6c-6.3,15-12.7,29.9-19,44.9c-1.6,3.7-4.2,5.1-7.6,4.2c-2.1-0.5-3.2-2.1-4-3.9c-1.9-4.1-3.9-8.3-5.8-12.5
		C15.3,34.4,10.2,23.3,5,12.3c-0.9-1.9-2.4-3.5-3.7-5.2C0.6,6.2,0,5.5,0,4.3c0-1.1,0.5-1.5,1.4-1.7c0.3-0.1,0.6-0.1,0.9-0.1
		c7.2,0,14.4,0,21.6,0c0.9,0,1.9,0,2.4,1.1c0.5,1.1-0.1,2-0.9,2.7c-0.6,0.6-1.3,1.2-1.9,1.8c-1,1.1-1.3,2.3-0.7,3.7
		c4.4,10.8,8.8,21.6,13.2,32.4C36,44.3,36.1,44.5,36.3,44.9z"/>
	<path d="M184.9,26.5c1.8-2.1,3.7-3.7,6.2-4.6c9.2-3.5,18.6,1.3,20.9,10.9c1,4.2,1.1,8.6,1.6,13c0.3,2.5,0.3,5,0.6,7.5
		c0.2,1.2,0.8,2.3,1.3,3.4c0.3,0.8,0.9,1.4,1.3,2.1c0.9,2,0.1,3.2-2,3.2c-3.5,0-7,0-10.5,0c-2,0-4,0-6,0c-1.9,0-2.7-1.3-1.9-3
		c0.4-0.7,0.9-1.4,1.4-2.1c1-1.4,1.5-2.9,1.4-4.6c-0.4-5.5-0.6-10.9-1-16.4c-0.2-2-0.5-4-1.1-6c-0.7-2.4-2.2-3.5-4.4-3.5
		c-2.4-0.1-4,1-4.8,3.3c-0.5,1.3-0.7,2.7-0.8,4c-0.1,6.3,0,12.7-0.1,19c0,1.7,0.8,2.9,1.8,4.1c0.6,0.7,1.3,1.5,1.7,2.3
		c0.7,1.5-0.1,2.7-1.8,2.7c-6.1,0-12.2,0-18.3,0c-1.9,0-2.7-1.4-1.7-3.1c0.5-0.8,1.2-1.5,1.8-2.3c1.1-1.2,1.6-2.6,1.6-4.2
		c0-5.2-0.1-10.3,0-15.5c0-1.9-0.6-3.3-2.1-4.5c-0.5-0.4-1-0.8-1.4-1.2c-1.6-1.5-1.4-2.9,0.5-3.9c3.3-1.7,6.6-3.3,9.9-4.9
		c0.9-0.4,1.7-0.9,2.6-1.2c1.6-0.7,2.7,0,2.9,1.7c0.1,0.6,0,1.2,0.1,1.8C184.9,25.4,184.9,25.9,184.9,26.5z"/>
	<path d="M303.9,38.9c-0.7-3.6-1.2-7.2-2-10.7c-0.4-1.8-1.7-3.1-3.7-3.2c-2.1-0.1-3.3,1-4.1,2.8c-0.8,1.7-1.4,3.4-2.2,5.1
		c-1.5,2.9-3.9,3.9-7,3.1c-3.7-1-5.2-5.1-3.2-8.8c1-1.9,2.6-3.2,4.6-4c6.9-2.9,14-3.2,21-0.3c7.1,3,10.3,9,11.1,16.4
		c0.5,4.6,1.1,9.3,1.7,13.9c0.3,2,1.1,3.7,2.9,4.8c0.6,0.4,1.3,1.3,1.2,1.8c-0.2,0.7-1,1.6-1.7,1.7c-2.7,0.5-5.5,0.7-8.2,1
		c-0.8,0.1-1.6-0.1-2.4-0.1c-2.4-0.3-4.4-1-5.3-3.7c-1.9,2.2-4.2,3.4-6.9,3.9c-4.4,0.7-8.7,0.4-12.8-1.4c-4.3-2-6.6-5.4-6.9-10.1
		c-0.2-4.9,1.6-8.9,5.9-11.3c5.2-2.9,10.7-3.1,16.2-1c0.4,0.1,0.8,0.3,1.2,0.5C303.6,39.1,303.8,39,303.9,38.9z M295.1,47.6
		c0.2,1.5,0.1,2.7,0.4,3.8c0.5,1.8,1,3.6,1.9,5.1c1.7,2.8,5,2.6,6.6-0.3c0.3-0.5,0.7-1.1,0.7-1.7c-0.1-2.6-0.1-5.2-0.4-7.8
		c-0.1-1.2-0.8-2.4-1.5-3.3c-2-2.7-5.8-2.1-7,1C295.3,45.6,295.2,46.8,295.1,47.6z"/>
	<path d="M143.9,47c3.9,6.3,12.5,7.3,17.6,2.2c0.8-0.8,1.6-1.4,2.7-0.8c1.1,0.6,0.9,1.6,0.7,2.6c-1.4,5.3-5,8.7-9.9,10.6
		c-11,4.2-27-1.2-27.8-18.5c-0.5-10.9,5.8-19.3,16-21.5c5.8-1.2,11.5-0.7,16.5,3c2.1,1.6,3.5,3.7,4.1,6.3c0.6,3-0.3,5.3-3,6.8
		c-5.1,2.9-10.3,5.8-15.4,8.7C144.7,46.5,144.3,46.7,143.9,47z M141.8,42.6c2.5-1.5,4.7-2.9,7-4.2c2.2-1.2,3.2-3.1,2.9-5.6
		c-0.1-1.1-0.3-2.2-0.6-3.2c-0.9-2.9-2.7-4.6-4.9-4.6c-2.3,0-4.2,1.8-5,4.7C140,34.1,140.7,38.2,141.8,42.6z"/>
	<path d="M223.8,27.5c-1,0-1.8,0-2.5,0c-2,0-2.6-0.6-2.6-2.6c0-0.4,0-0.7,0-1.1c0.1-1.3,0.7-1.9,2-2c1-0.1,2,0,3-0.2
		c4.3-0.6,7-3.1,8.4-7.1c0.2-0.6,0.3-1.2,0.5-1.8c0.4-1,1.1-1.6,2.2-1.6c0.6,0,1.2,0,1.9,0c1.6,0.1,2.3,0.8,2.3,2.5
		c0,2.7,0,5.4,0,8.2c2,0,3.8,0,5.7,0c0.9,0,1.9,0,2.8,0c1.4,0,2.1,0.7,2.1,2.1c0,0.4,0,0.8,0,1.2c0,1.7-0.6,2.3-2.3,2.4
		c-2.2,0-4.5,0-6.7,0c-0.5,0-0.9,0-1.5,0.1c0,0.6,0,1.1,0,1.5c0,5.9,0,11.7,0,17.6c0,0.1,0,0.3,0,0.4c0,2.6,0.8,4.1,2.6,4.8
		c1.9,0.7,4.6-0.1,6-1.8c0.3-0.4,0.6-1,1-1.2c0.6-0.3,1.5-0.7,2-0.5c0.5,0.2,1,1.1,1,1.7c0,6.3-5,11.9-11.3,12.5
		c-2,0.2-4.1,0.2-6-0.1c-5.6-1.1-9.2-5.1-10-10.9c-0.3-2.3-0.4-4.7-0.4-7c-0.1-5.1,0-10.2,0-15.4C223.8,28.7,223.8,28.2,223.8,27.5z
		"/>
	<path d="M106.4,28.2c0.3-0.5,0.5-1,0.8-1.5c2.4-4.2,7.4-6.6,12.2-5.6c3.8,0.8,6.3,4,6.2,8.2c0,0.9-0.1,1.9-0.3,2.8
		c-0.9,4-4.3,6-8.3,4.8c-1.8-0.5-2.8-1.9-3.4-3.6c-0.3-0.9-0.4-1.9-0.9-2.6c-0.4-0.6-1.2-1.3-1.9-1.3c-0.7,0-1.7,0.5-2,1.1
		c-0.6,1.1-1,2.4-1,3.6c-0.1,6.3-0.2,12.5-0.1,18.8c0,1.1,0.8,2.4,1.5,3.4c0.5,0.8,1.4,1.4,2,2c0.8,0.7,1.2,1.8,0.6,2.6
		c-0.4,0.6-1.4,1-2.2,1c-4.6,0.1-9.3,0-13.9,0c-1.2,0-2.4,0-3.6,0c-2.1-0.1-2.9-1.5-1.9-3.3c0.2-0.3,0.4-0.7,0.7-1
		c1.8-1.8,2.3-4,2.3-6.5c-0.1-4.8-0.1-9.6,0-14.4c0-1.9-0.6-3.4-2.1-4.6c-0.3-0.2-0.6-0.5-0.9-0.8c-1.6-1.5-1.4-3.2,0.5-4.3
		c1.1-0.6,2.3-1.1,3.4-1.7c2.8-1.3,5.7-2.7,8.5-4c2.4-1.1,3.4-0.4,3.4,2.2c0,1.5,0,3,0,4.5C106.2,28.1,106.3,28.2,106.4,28.2z"/>
	<path d="M82.1,38.2c0,4.5,0.1,8.9,0,13.4c-0.1,2.3,0.6,4.1,2.2,5.7c0.5,0.5,0.9,1,1.2,1.5c1,1.7,0.2,3.2-1.8,3.2
		c-2.7,0.1-5.5,0-8.2,0c-3.2,0-6.4,0-9.5,0c-2.2,0-3.1-1.5-1.9-3.4c0.1-0.1,0.1-0.2,0.2-0.3c2.5-2.4,2.9-5.5,2.7-8.8
		c-0.2-4-0.1-7.9,0-11.9c0-2-0.6-3.6-1.8-5.1c-0.2-0.2-0.4-0.5-0.6-0.7c-1.6-2-1.4-3.1,1-4.2c4.1-2,8.2-4,12.3-6
		c0.2-0.1,0.4-0.2,0.6-0.3c2.2-0.9,3.6,0,3.6,2.3c0,2.8,0,5.6,0,8.5C82.1,34.1,82.1,36.2,82.1,38.2z"/>
	<path d="M272.7,38.1c0,4.5,0.1,8.9,0,13.4c-0.1,2.3,0.6,4.2,2.2,5.8c0.4,0.4,0.8,0.8,1.1,1.3c1.1,1.8,0.3,3.3-1.7,3.4
		c-1.4,0-2.8,0-4.2,0c-4.4,0-8.8,0-13.2,0c-0.8,0-2.1-0.4-2.3-1c-0.3-0.7,0.1-1.8,0.4-2.7c0.2-0.5,0.7-0.9,1-1.4
		c1.2-1.4,1.7-3,1.7-4.9c-0.1-4.8-0.1-9.6,0-14.4c0-2-0.6-3.7-1.9-5.2c-0.3-0.3-0.6-0.7-0.8-1c-1.2-1.6-0.9-2.8,0.8-3.6
		c4.3-2.2,8.7-4.3,13.1-6.4c2.5-1.2,3.9-0.2,3.9,2.5C272.7,28.7,272.7,33.4,272.7,38.1z"/>
	<path d="M74.7,17c-4.6-0.2-8.2-2.4-9.3-6c-1.3-4,0.5-8,4.3-9.8c3.2-1.5,6.4-1.5,9.6-0.1c3.3,1.4,5.1,4.4,5,7.8
		c-0.1,3.4-2.4,6.3-5.8,7.4C77.2,16.6,75.9,16.7,74.7,17z"/>
	<path d="M265.4,17.1c-2.2-0.2-4.1-0.7-5.9-1.8c-5.4-3.3-5.3-10.9,0.2-13.9c3.6-1.9,7.3-1.9,10.9,0c2.9,1.5,4.3,4,4.2,7.2
		c-0.1,3.2-1.7,5.7-4.6,7C268.7,16.4,267,16.7,265.4,17.1z"/>
</g>
<g>
</g>
<g>
</g>
<g>
</g>
<g>
</g>
<g>
</g>
<g>
</g>
</svg>
